# xmcd CD database file
#
# Track frame offsets:
#	150
#	14700
#	27914
#	53673
#	78386
#	97217
#	114581
#	128802
#	141023
#	168226
#	201195
#
# Disc length: 3081 seconds
#
# Revision: 0
# Processed by: cddbd v1.5.2PL0 Copyright (c) Steve Scherf et al.
# Submitted via: CDex 1.51
#
DISCID=940c070b
DTITLE=Steve White Quartet - Jazz In Hollywood
DYEAR=1997
DGENRE=Jazz
TTITLE0=Steve White Quartet - The Perfect Mate
TTITLE1=Steve White Quartet - The Funk Dispenser
TTITLE2=Steve White Quartet - Freeway
TTITLE3=Steve White Quartet - Ain't Misbehavin'
TTITLE4=Steve White Quartet - How Deep Is The Ocean
TTITLE5=Steve White Quartet - She Was All Wet
TTITLE6=Steve White Quartet - Red And White Blew, Take 1 (Incomplete)
TTITLE7=Steve White Quartet - Red And White Blew, Take 2
TTITLE8=Steve White Quartet - Easy Does It, Take 1
TTITLE9=Steve White Quartet - Easy Does It, Take 2
TTITLE10=Steve White Quartet - Nocturnal Salesman
EXTD=YEAR: 1997
EXTT0=
EXTT1=
EXTT2=
EXTT3=
EXTT4=
EXTT5=
EXTT6=
EXTT7=
EXTT8=
EXTT9=
EXTT10=
PLAYORDER=
